# xmcd
#
# Track frame offsets:
# 150
# 16800
# 26550
# 37425
# 51825
# 62100
# 74175
# 88275
# 100200
# 114375
# 126525
# 133650
# 145200
# 158850
# 170850
# 181350
# 194475
#
# Disc length: 2729 seconds
#
#
# Revision: 0
# Processed by: cddbd v1.5.1PL2 Copyright (c) Steve Scherf et al.
# Submitted via: FreeRIP 2.945 
#
DISCID=0f0aa711
DTITLE=40iger - Kein Schwein ruft mich an
DYEAR=1994
DGENRE=Oldies
TTITLE0=Palast-Orchestrer-Max Raabe  Kein Schwein ruft mich an Track-01
TTITLE1=Johannes Heesters  Man müsste Klavier spielen könnenTrack-02
TTITLE2=Heinz Rühmann Ich brech die Herzen der stolzesten Frau"nTrack-03
TTITLE3=Comedian Harmonists Wochenend und SonnenscheinTrack-04
TTITLE4=Die Goldenen Sieben Wenn ich vergnügt bin muß ich singenTrack-05
TTITLE5=Marek Weber Wenn die Elisabeth nicht so schöne Beine hättTrack-06
TTITLE6=Lizzi Waldmüller Du hast Glück bei den Fraun Bel AmiTrack-07
TTITLE7=Comedian Harmonists Tea For TwoTrack-08
TTITLE8=Peter Ingelhoff Der Onkel Dokter hat gesagtTrack-09
TTITLE9=Gustaf Gründgens Die Nacht ist nicht allein zum Schlafen daTrack-10
TTITLE10=Edith Schollwer&Johannes Heesters Ich werde jede Nacht von ihnen träumenTrack-11
TTITLE11=Marika Rökk In der Nacht ist der Mensch nicht gern alleineTrack-12
TTITLE12=Marlene Dietrich Ich bin von Kopf bis Fus auf Liebe eingesteltTrack-13
TTITLE13=Hilde Hildebrand&Die goldene Sieben Komm spiel mit mir BlindekuhTrack-14
TTITLE14=Hans Albers Mein Gorilla hat ne Villa im ZooTrack-15
TTITLE15=Pola Negri Tango NatturnoTrack-16
TTITLE16=Die Weintraubs Ich kauf mir ne RaketeTrack-17
EXTD=Allte Schlager
EXTT0=
EXTT1=
EXTT2=
EXTT3=
EXTT4=
EXTT5=
EXTT6=
EXTT7=
EXTT8=
EXTT9=
EXTT10=
EXTT11=
EXTT12=
EXTT13=
EXTT14=
EXTT15=
EXTT16=
PLAYORDER=
